<!DOCTYPE svg PUBLIC "-//W3C//DTD SVG 1.1//EN" "http://www.w3.org/Graphics/SVG/1.1/DTD/svg11.dtd">
<!-- Uploaded to: SVG Repo, www.svgrepo.com, Transformed by: SVG Repo Mixer Tools -->
<svg version="1.1" id="Layer_1" xmlns="http://www.w3.org/2000/svg" xmlns:xlink="http://www.w3.org/1999/xlink" viewBox="0 0 512 512" xml:space="preserve" width="800px" height="800px" fill="#000000">
<g id="SVGRepo_bgCarrier" stroke-width="0"/>
<g id="SVGRepo_tracerCarrier" stroke-linecap="round" stroke-linejoin="round"/>
<g id="SVGRepo_iconCarrier"> <polygon style="fill:#edc091;" points="303.511,229.66 303.511,295.604 303.511,310.781 364.996,310.781 364.996,254.267 364.996,169.82 "/> <polygon style="fill:#EABB71;" points="331.901,229.66 364.996,197.45 364.996,169.82 303.511,229.66 303.511,295.604 303.511,310.781 331.901,310.781 331.901,295.604 "/> <path style="fill:#edc091;" d="M401.328,148.681c-16.952,0-30.742,13.792-30.742,30.742v75.793v142.015h61.485V278.878v-99.454 C432.07,162.473,418.279,148.681,401.328,148.681z"/> <path style="fill:#EABB71;" d="M398.975,179.424c0-11.832,6.724-22.118,16.547-27.256c-4.25-2.222-9.076-3.487-14.195-3.487 c-16.952,0-30.742,13.792-30.742,30.742v75.793v142.015h28.39V255.216V179.424z"/> <path style="fill:#edc091;" d="M146.158,150.828l0.786,26.571c0.037,0.671,0.06,1.345,0.06,2.026v74.844v41.337l61.485,31.83v-31.83 v-84.299L146.158,150.828z"/> <path style="fill:#EABB71;" d="M175.395,295.604v-41.337v-74.844c0-0.079-0.007-0.157-0.007-0.236l-29.229-28.36l0.786,26.571 c0.037,0.671,0.06,1.345,0.06,2.026v74.844v41.337l61.485,31.83v-14.697L175.395,295.604z"/> <path style="fill:#edc091;" d="M110.672,148.681c-16.952,0-30.742,13.792-30.742,30.742v99.454v75.575h61.485v-99.237v-75.792 C141.415,162.473,127.624,148.681,110.672,148.681z"/> <path style="fill:#EABB71;" d="M108.32,179.424c0-11.832,6.724-22.118,16.547-27.256c-4.25-2.222-9.076-3.487-14.195-3.487 c-16.952,0-30.742,13.792-30.742,30.742v99.454v75.575h28.39v-75.575C108.32,278.878,108.32,179.424,108.32,179.424z"/> <g> <path style="fill:#EFCA83;" d="M258.795,512V366.994c0-12.079,4.702-23.435,13.237-31.978l30.364-30.391l0.146-0.126 c0.099-0.087,0.192-0.179,0.275-0.275l0.131-0.151l33.497-33.526c6.763-6.769,15.742-10.496,25.284-10.496 c1.182,0,2.378,0.059,3.557,0.176c10.714,1.058,20.287,6.805,26.261,15.766l0.541,0.812c9.492,14.238,7.897,33.517-3.792,45.844 l-44.84,44.842c-1.09,1.091-1.09,2.864,0,3.954c0.711,0.711,1.544,0.816,1.976,0.816s1.264-0.106,1.976-0.817l2.766-2.766 c6.982-6.982,25.873-25.871,41.39-41.376c0.211-0.21,0.674-0.689,0.674-0.689l44.602-44.601c0.528-0.529,0.818-1.231,0.818-1.978 V140.297c0-20.034,16.299-36.332,36.332-36.332c20.033,0,36.332,16.298,36.332,36.332v186.971c0,11.793-5.136,22.958-14.089,30.632 l-46.413,39.783c-11.281,9.669-17.751,23.736-17.751,38.595v50.646c0,13.827-11.249,25.078-25.077,25.078L258.795,512L258.795,512z "/> <path style="fill:#EFCA83;" d="M105.007,512c-13.827,0-25.077-11.249-25.077-25.078v-50.646c0-14.858-6.47-28.926-17.751-38.595 l-46.413-39.783c-8.953-7.673-14.089-18.839-14.089-30.632V140.297c0-20.034,16.299-36.332,36.332-36.332 s36.332,16.298,36.332,36.332v139.738c0,0.747,0.291,1.449,0.819,1.978l44.638,44.64c0.21,0.219,0.424,0.438,0.639,0.654 c15.414,15.4,34.159,34.143,41.25,41.234l2.904,2.905c0.711,0.711,1.544,0.816,1.976,0.816c0.433,0,1.264-0.106,1.976-0.817 c1.089-1.09,1.089-2.863,0-3.953l-44.84-44.841c-11.689-12.327-13.284-31.605-3.794-45.842l0.543-0.815 c5.974-8.961,15.546-14.706,26.262-15.765c1.177-0.116,2.373-0.176,3.553-0.176c9.545,0,18.524,3.727,25.286,10.496l33.497,33.526 l0.131,0.151c0.083,0.096,0.176,0.188,0.275,0.275l0.146,0.126l30.365,30.391c8.536,8.544,13.237,19.9,13.237,31.978V512H105.007z"/> </g> <g> <path style="fill:#EABB71;" d="M300.422,335.017l30.364-30.391l0.146-0.126c0.099-0.087,0.192-0.179,0.275-0.275l0.131-0.151 l33.497-33.526c3.25-3.252,7.015-5.794,11.104-7.566c-3.346-1.44-6.928-2.387-10.654-2.755c-1.179-0.116-2.376-0.176-3.557-0.176 c-9.542,0-18.52,3.727-25.284,10.496l-33.497,33.526l-0.131,0.151c-0.083,0.096-0.176,0.188-0.275,0.275l-0.146,0.126 l-30.365,30.391c-8.536,8.544-13.237,19.9-13.237,31.978V512h28.39V366.994C287.185,354.915,291.886,343.56,300.422,335.017z"/> <path style="fill:#EABB71;" d="M108.32,486.922v-50.646c0-14.858-6.47-28.926-17.751-38.595l-46.413-39.783 c-8.953-7.673-14.089-18.84-14.089-30.632V140.297c0-14.999,9.138-27.903,22.137-33.442c-4.363-1.859-9.161-2.89-14.195-2.89 c-20.033,0-36.332,16.298-36.332,36.332v186.971c0,11.793,5.136,22.958,14.089,30.632l46.413,39.783 c11.281,9.669,17.751,23.736,17.751,38.595v50.646C79.93,500.751,91.18,512,105.007,512h28.39 C119.57,512,108.32,500.751,108.32,486.922z"/> </g> <path style="fill:#0ca06b;" d="M143.651,229.006V76.017h224.699v152.989c0,3.795-3.076,6.872-6.872,6.872H150.522 C146.727,235.878,143.651,232.801,143.651,229.006z"/> <path style="fill:#19970b;" d="M172.886,229.006V76.017h-29.235v152.989c0,3.795,3.076,6.872,6.872,6.872h29.235 C175.963,235.878,172.886,232.801,172.886,229.006z"/> <path style="fill:#008d07;" d="M150.559,101.729c-10.649,0-18.088-5.351-18.088-13.014V57.73c0-7.662,7.437-13.014,18.088-13.014 h215.957c7.175,0,13.014,5.838,13.014,13.014v30.987c0,7.176-5.838,13.014-13.014,13.014H150.559V101.729z"/> <path style="fill:#036000;" d="M161.707,88.716V57.73c0-7.662,7.437-13.014,18.088-13.014h-29.235 c-10.649,0-18.088,5.351-18.088,13.014v30.987c0,7.662,7.437,13.014,18.088,13.014h29.235 C169.144,101.729,161.707,96.378,161.707,88.716z"/> <g> <rect x="233.083" y="100.611" style="fill:#FFA733;" width="45.834" height="135.266"/> <rect x="221.904" y="44.716" style="fill:#FFA733;" width="68.192" height="57.013"/> <path style="fill:#FFA733;" d="M289.537,0C276.9,0,266.62,10.28,266.62,22.917s10.28,22.917,22.917,22.917 c12.637,0,22.917-10.28,22.917-22.917S302.174,0,289.537,0z M289.537,28.938c-3.32,0-6.021-2.701-6.021-6.021 s2.701-6.021,6.021-6.021c3.32,0,6.021,2.701,6.021,6.021S292.857,28.938,289.537,28.938z"/> <path style="fill:#FFA733;" d="M221.904,0c-12.637,0-22.917,10.28-22.917,22.917s10.28,22.917,22.917,22.917 c12.637,0,22.917-10.28,22.917-22.917S234.541,0,221.904,0z M221.904,28.938c-3.32,0-6.021-2.701-6.021-6.021 s2.701-6.021,6.021-6.021s6.021,2.701,6.021,6.021S225.224,28.938,221.904,28.938z"/> </g> </g>
</svg>