<?xml version="1.0" encoding="iso-8859-1"?>
<!-- Generator: Adobe Illustrator 19.0.0, SVG Export Plug-In . SVG Version: 6.00 Build 0)  -->
<svg version="1.1" id="Layer_1" xmlns="http://www.w3.org/2000/svg" xmlns:xlink="http://www.w3.org/1999/xlink" x="0px" y="0px"
	 viewBox="0 0 460 460" style="enable-background:new 0 0 460 460;" xml:space="preserve">
<g>
	<path style="fill:#FF0F27;" d="M230,0C102.974,0,0,102.975,0,230c0,98.106,61.425,181.867,147.915,214.92L444.92,147.915
		C411.867,61.425,328.107,0,230,0z"/>
	<path style="fill:#C2001B;" d="M460,230c0-28.92-5.353-56.586-15.097-82.082l-66.411-66.411L81.508,378.492l66.411,66.411
		C173.414,454.647,201.08,460,230,460C357.025,460,460,357.025,460,230z"/>
	
		<rect x="158.385" y="240.688" transform="matrix(-0.7071 -0.7071 0.7071 -0.7071 117.4624 601.8802)" style="fill:#C2FBFF;" width="50" height="71.849"/>
	<polygon style="fill:#61A2B3;" points="165.052,337.374 102.721,399.706 81.508,378.492 143.839,302.019 	"/>
	<polygon style="fill:#71E2F0;" points="150.91,309.09 81.508,378.492 60.294,357.279 122.626,294.948 	"/>
	
		<rect x="124.448" y="290.551" transform="matrix(-0.7071 -0.7071 0.7071 -0.7071 47.6005 630.8193)" style="fill:#FFFFFF;" width="59.999" height="30"/>
	<path style="fill:#38C6D9;" d="M378.492,273.735c-53.082,53.082-139.145,53.082-192.227,0l28.284-163.943l163.943-28.284
		C431.574,134.59,431.574,220.653,378.492,273.735z"/>
	<path style="fill:#71E2F0;" d="M186.265,81.508c-53.082,53.082-53.082,139.145,0,192.227L378.492,81.508
		C325.41,28.426,239.347,28.426,186.265,81.508z"/>
	<path style="fill:#C2FBFF;" d="M364.35,259.592c-45.272,45.272-118.671,45.272-163.943,0l24.123-139.82L364.35,95.65
		C409.622,140.921,409.622,214.321,364.35,259.592z"/>
	<path style="fill:#FFFFFF;" d="M200.408,95.65c-45.271,45.271-45.272,118.671,0,163.943L364.35,95.65
		C319.079,50.378,245.679,50.378,200.408,95.65z"/>
	<path style="fill:#FF0F27;" d="M315.631,150.021h-15v-42.869c0-10.064-8.188-18.252-18.252-18.252s-18.252,8.188-18.252,18.252
		v42.869h-15v-42.869c0-18.335,14.917-33.252,33.252-33.252s33.252,14.917,33.252,33.252L315.631,150.021L315.631,150.021z"/>
	<polygon style="fill:#FF0F27;" points="282.379,111.4 296.473,187.9 282.379,254.4 216.108,229.4 216.108,111.4 	"/>
	<polygon style="fill:#C2001B;" points="282.379,111.4 282.379,229.4 216.108,229.4 216.108,264.4 348.65,264.4 348.65,111.4 	"/>
</g>
<g>
</g>
<g>
</g>
<g>
</g>
<g>
</g>
<g>
</g>
<g>
</g>
<g>
</g>
<g>
</g>
<g>
</g>
<g>
</g>
<g>
</g>
<g>
</g>
<g>
</g>
<g>
</g>
<g>
</g>
</svg>
