<!DOCTYPE svg PUBLIC "-//W3C//DTD SVG 1.1//EN" "http://www.w3.org/Graphics/SVG/1.1/DTD/svg11.dtd">
<!-- Uploaded to: SVG Repo, www.svgrepo.com, Transformed by: SVG Repo Mixer Tools -->
<svg width="800px" height="800px" viewBox="-2.4 -2.4 28.80 28.80" xmlns="http://www.w3.org/2000/svg"
    fill="#abb30f" stroke="#abb30f" transform="matrix(-1, 0, 0, 1, 0, 0)">

    <g id="SVGRepo_bgCarrier" stroke-width="0" transform="translate(0,0), scale(1)">

        <path transform="translate(-2.4, -2.4), scale(1.7999999999999998)" fill="#1771af"
            d="M9.166.33a2.25 2.25 0 00-2.332 0l-5.25 3.182A2.25 2.25 0 00.5 5.436v5.128a2.25 2.25 0 001.084 1.924l5.25 3.182a2.25 2.25 0 002.332 0l5.25-3.182a2.25 2.25 0 001.084-1.924V5.436a2.25 2.25 0 00-1.084-1.924L9.166.33z"
            strokewidth="0" />

    </g>

    <g id="SVGRepo_tracerCarrier" stroke-linecap="round" stroke-linejoin="round" stroke="#CCCCCC"
        stroke-width="0.184" />

    <g id="SVGRepo_iconCarrier">

        <path
            d="M7.828 5l-1-1H22v15.172l-1-1v-.69l-3.116-3.117-.395.296-.714-.714.854-.64a.503.503 0 0 1 .657.046L21 16.067V5zM3 20v-.519l2.947-2.947a1.506 1.506 0 0 0 .677.163 1.403 1.403 0 0 0 .997-.415l2.916-2.916-.706-.707-2.916 2.916a.474.474 0 0 1-.678-.048.503.503 0 0 0-.704.007L3 18.067V5.828l-1-1V21h16.172l-1-1zM17 8.5A1.5 1.5 0 1 1 15.5 7 1.5 1.5 0 0 1 17 8.5zm-1 0a.5.5 0 1 0-.5.5.5.5 0 0 0 .5-.5zm5.646 13.854l.707-.707-20-20-.707.707z" />

        <path fill="none" d="M0 0h24v24H0z" />

    </g>

</svg>